<?xml version="1.0" encoding="UTF-8"?>
<svg width="1440" height="960" viewBox="0 0 1440 960" fill="none" xmlns="http://www.w3.org/2000/svg">
  <title>Реальный макет: вход</title>
  <rect width="1440" height="960" fill="#f8fafc"/>
  
    <rect width="1440" height="960" fill="#f8fafc"/>
    <path d="M0 0 H1440 V960 H0 Z" fill="url(#loginGrad)"/>
    <defs><linearGradient id="loginGrad" x1="0" y1="0" x2="1440" y2="960"><stop stop-color="#f8fafc"/><stop offset=".7" stop-color="#f8fafc"/><stop offset="1" stop-color="#eff6ff"/></linearGradient></defs>
    <g transform="translate(470 96)">
      <rect x="200" y="0" width="64" height="64" rx="12" fill="#eff6ff" stroke="#bfdbfe"/><path d="M232 12 L242 17 V27 C242 34 236 37 232 39 C228 37 222 34 222 27 V17 L232 12Z" stroke="#2563eb" stroke-width="2.5" fill="none"/>
      <text x="250" y="130" font-family="Inter, Segoe UI, Arial, sans-serif" font-size="30" font-weight="800" fill="#0f172a" text-anchor="middle">Вход в систему</text>
      <text x="250" y="164" font-family="Inter, Segoe UI, Arial, sans-serif" font-size="18" font-weight="400" fill="#64748b" text-anchor="middle">Автоматизация HR-документов</text>
      <rect x="0" y="214" width="500" height="474" rx="14" fill="#ffffff" stroke="#e2e8f0"/>
      <text x="32" y="272" font-family="Inter, Segoe UI, Arial, sans-serif" font-size="14" font-weight="500" fill="#334155" text-anchor="start">Имя пользователя</text><rect x="32" y="284" width="436" height="42" rx="8" fill="#fff" stroke="#dbe3ee"/><text x="46" y="311" font-family="Inter, Segoe UI, Arial, sans-serif" font-size="14" font-weight="400" fill="#64748b" text-anchor="start">hr</text>
      <text x="32" y="370" font-family="Inter, Segoe UI, Arial, sans-serif" font-size="14" font-weight="500" fill="#334155" text-anchor="start">Пароль</text><rect x="32" y="382" width="436" height="42" rx="8" fill="#fff" stroke="#dbe3ee"/><text x="46" y="409" font-family="Inter, Segoe UI, Arial, sans-serif" font-size="14" font-weight="400" fill="#64748b" text-anchor="start">••••••</text>
      <rect x="32" y="468" width="436" height="48" rx="8" fill="#fee2e2" stroke="#fca5a5"/><text x="50" y="499" font-family="Inter, Segoe UI, Arial, sans-serif" font-size="16" font-weight="400" fill="#ef4444" text-anchor="start">Ошибка входа</text>
      <rect x="32" y="550" width="436" height="40" rx="8" fill="#2563eb" stroke="#2563eb"/><text x="250" y="576" font-family="Inter, Segoe UI, Arial, sans-serif" font-size="14" font-weight="600" fill="#fff" text-anchor="middle">Войти</text>
      <line x1="32" y1="622" x2="468" y2="622" stroke="#e2e8f0"/>
      <text x="250" y="660" font-family="Inter, Segoe UI, Arial, sans-serif" font-size="14" font-weight="400" fill="#64748b" text-anchor="middle">Демо-доступ для двух ролей системы.</text>
      <text x="250" y="684" font-family="Inter, Segoe UI, Arial, sans-serif" font-size="13" font-weight="500" fill="#334155" text-anchor="middle">HR: hr / hr2024</text>
      <text x="250" y="708" font-family="Inter, Segoe UI, Arial, sans-serif" font-size="13" font-weight="500" fill="#334155" text-anchor="middle">Директор: director / director2024</text>
      <text x="250" y="762" font-family="Inter, Segoe UI, Arial, sans-serif" font-size="13" font-weight="400" fill="#64748b" text-anchor="middle">Система автоматизации формирования и печати документов</text>
    </g>
  
</svg>
