<?xml version="1.0" encoding="UTF-8"?>
<svg width="1440" height="960" viewBox="0 0 1440 960" fill="none" xmlns="http://www.w3.org/2000/svg">
  <title>Реальный макет: обзор</title>
  <rect width="1440" height="960" fill="#f8fafc"/>
  
    
    <rect x="0" y="0" width="260" height="960" fill="#ffffff"/>
    <line x1="260" y1="0" x2="260" y2="960" stroke="#e2e8f0"/>
    <rect x="18" y="22" width="40" height="40" rx="12" fill="#eff6ff" stroke="#bfdbfe"/><path d="M38 34 L48 39 V49 C48 56 42 59 38 61 C34 59 28 56 28 49 V39 L38 34Z" stroke="#2563eb" stroke-width="2.5" fill="none"/>
    <text x="70" y="46" font-family="Inter, Segoe UI, Arial, sans-serif" font-size="14" font-weight="800" fill="#0f172a" text-anchor="start">HR Docs</text>
    <text x="70" y="64" font-family="Inter, Segoe UI, Arial, sans-serif" font-size="10" font-weight="700" fill="#64748b" text-anchor="start">СИСТЕМА АВТОМАТИЗАЦИИ</text>
    <text x="18" y="118" font-family="Inter, Segoe UI, Arial, sans-serif" font-size="12" font-weight="700" fill="#94a3b8" text-anchor="start">УПРАВЛЕНИЕ</text>
    
      <rect x="14" y="130" width="232" height="44" rx="8" fill="#eff6ff" stroke="#dbeafe"/>
      <circle cx="38" cy="152" r="7" fill="#2563eb"/>
      <text x="58" y="157" font-family="Inter, Segoe UI, Arial, sans-serif" font-size="14" font-weight="700" fill="#2563eb" text-anchor="start">Главная</text>
    
      <rect x="14" y="180" width="232" height="44" rx="8" fill="#ffffff" stroke="#ffffff"/>
      <circle cx="38" cy="202" r="7" fill="#94a3b8"/>
      <text x="58" y="207" font-family="Inter, Segoe UI, Arial, sans-serif" font-size="14" font-weight="500" fill="#64748b" text-anchor="start">Сотрудники</text>
    
      <rect x="14" y="230" width="232" height="44" rx="8" fill="#ffffff" stroke="#ffffff"/>
      <circle cx="38" cy="252" r="7" fill="#94a3b8"/>
      <text x="58" y="257" font-family="Inter, Segoe UI, Arial, sans-serif" font-size="14" font-weight="500" fill="#64748b" text-anchor="start">Документы</text>
    
      <rect x="14" y="280" width="232" height="44" rx="8" fill="#ffffff" stroke="#ffffff"/>
      <circle cx="38" cy="302" r="7" fill="#94a3b8"/>
      <text x="58" y="307" font-family="Inter, Segoe UI, Arial, sans-serif" font-size="14" font-weight="500" fill="#64748b" text-anchor="start">Создать документ</text>
    
      <rect x="14" y="330" width="232" height="44" rx="8" fill="#ffffff" stroke="#ffffff"/>
      <circle cx="38" cy="352" r="7" fill="#94a3b8"/>
      <text x="58" y="357" font-family="Inter, Segoe UI, Arial, sans-serif" font-size="14" font-weight="500" fill="#64748b" text-anchor="start">Шаблоны</text>
    
    <line x1="0" y1="842" x2="260" y2="842" stroke="#e2e8f0"/>
    <circle cx="36" cy="884" r="17" fill="#eff6ff" stroke="#bfdbfe"/>
    <text x="36" y="890" font-family="Inter, Segoe UI, Arial, sans-serif" font-size="12" font-weight="800" fill="#2563eb" text-anchor="middle">hr</text>
    <text x="64" y="878" font-family="Inter, Segoe UI, Arial, sans-serif" font-size="14" font-weight="600" fill="#0f172a" text-anchor="start">hr</text>
    <text x="64" y="899" font-family="Inter, Segoe UI, Arial, sans-serif" font-size="12" font-weight="400" fill="#64748b" text-anchor="start">HR-сотрудник</text>
  
    
    
    <text x="304" y="66" font-family="Inter, Segoe UI, Arial, sans-serif" font-size="30" font-weight="800" fill="#0f172a" text-anchor="start">Обзор системы</text>
    <text x="304" y="96" font-family="Inter, Segoe UI, Arial, sans-serif" font-size="15" font-weight="400" fill="#64748b" text-anchor="start">Оперативная сводка по документам и сотрудникам</text>
  
    <rect x="1034" y="44" width="142" height="40" rx="8" fill="#ffffff" stroke="#dbe3ee"/><text x="1105" y="70" font-family="Inter, Segoe UI, Arial, sans-serif" font-size="14" font-weight="600" fill="#334155" text-anchor="middle">Сотрудники</text>
    <rect x="1194" y="44" width="184" height="40" rx="8" fill="#2563eb" stroke="#2563eb"/><text x="1286" y="70" font-family="Inter, Segoe UI, Arial, sans-serif" font-size="14" font-weight="600" fill="#fff" text-anchor="middle">Создать документ</text>
    
    <rect x="304" y="142" width="246" height="132" rx="12" fill="#ffffff" stroke="#e2e8f0"/>
    <circle cx="508" cy="178" r="20" fill="#2563eb18"/>
    <circle cx="508" cy="178" r="8" fill="#2563eb"/>
    <text x="328" y="184" font-family="Inter, Segoe UI, Arial, sans-serif" font-size="13" font-weight="700" fill="#64748b" text-anchor="start">ВСЕГО ДОКУМЕНТОВ</text>
    <text x="328" y="228" font-family="Inter, Segoe UI, Arial, sans-serif" font-size="40" font-weight="800" fill="#0f172a" text-anchor="start">58</text>
  
    
    <rect x="574" y="142" width="246" height="132" rx="12" fill="#ffffff" stroke="#e2e8f0"/>
    <circle cx="778" cy="178" r="20" fill="#eab30818"/>
    <circle cx="778" cy="178" r="8" fill="#eab308"/>
    <text x="598" y="184" font-family="Inter, Segoe UI, Arial, sans-serif" font-size="13" font-weight="700" fill="#64748b" text-anchor="start">НА ПОДПИСЬ</text>
    <text x="598" y="228" font-family="Inter, Segoe UI, Arial, sans-serif" font-size="40" font-weight="800" fill="#0f172a" text-anchor="start">7</text>
  
    
    <rect x="844" y="142" width="246" height="132" rx="12" fill="#ffffff" stroke="#e2e8f0"/>
    <circle cx="1048" cy="178" r="20" fill="#16a34a18"/>
    <circle cx="1048" cy="178" r="8" fill="#16a34a"/>
    <text x="868" y="184" font-family="Inter, Segoe UI, Arial, sans-serif" font-size="13" font-weight="700" fill="#64748b" text-anchor="start">ПОДПИСАНО</text>
    <text x="868" y="228" font-family="Inter, Segoe UI, Arial, sans-serif" font-size="40" font-weight="800" fill="#0f172a" text-anchor="start">43</text>
  
    
    <rect x="1114" y="142" width="246" height="132" rx="12" fill="#ffffff" stroke="#e2e8f0"/>
    <circle cx="1318" cy="178" r="20" fill="#2563eb18"/>
    <circle cx="1318" cy="178" r="8" fill="#2563eb"/>
    <text x="1138" y="184" font-family="Inter, Segoe UI, Arial, sans-serif" font-size="13" font-weight="700" fill="#64748b" text-anchor="start">СОТРУДНИКОВ</text>
    <text x="1138" y="228" font-family="Inter, Segoe UI, Arial, sans-serif" font-size="40" font-weight="800" fill="#0f172a" text-anchor="start">24</text>
  
    <rect x="304" y="322" width="1074" height="438" rx="12" fill="#ffffff" stroke="#e2e8f0"/>
    <rect x="304" y="322" width="1074" height="64" rx="12" fill="#f1f5f9"/>
    <text x="336" y="362" font-family="Inter, Segoe UI, Arial, sans-serif" font-size="18" font-weight="700" fill="#0f172a" text-anchor="start">Последние документы</text>
    <text x="1260" y="362" font-family="Inter, Segoe UI, Arial, sans-serif" font-size="14" font-weight="600" fill="#64748b" text-anchor="start">Смотреть все →</text>
    <rect x="304" y="386" width="1074" height="290" rx="10" fill="#ffffff" stroke="#e2e8f0"/>
    <rect x="304" y="386" width="1074" height="58" rx="10" fill="#f1f5f9"/>
    <line x1="304" y1="444" x2="1378" y2="444" stroke="#e2e8f0"/><text x="326" y="423" font-family="Inter, Segoe UI, Arial, sans-serif" font-size="12" font-weight="800" fill="#64748b" text-anchor="start">НОМЕР</text><text x="496" y="423" font-family="Inter, Segoe UI, Arial, sans-serif" font-size="12" font-weight="800" fill="#64748b" text-anchor="start">НАЗВАНИЕ</text><text x="806" y="423" font-family="Inter, Segoe UI, Arial, sans-serif" font-size="12" font-weight="800" fill="#64748b" text-anchor="start">СОТРУДНИК</text><text x="1036" y="423" font-family="Inter, Segoe UI, Arial, sans-serif" font-size="12" font-weight="800" fill="#64748b" text-anchor="start">СТАТУС</text><text x="1216" y="423" font-family="Inter, Segoe UI, Arial, sans-serif" font-size="12" font-weight="800" fill="#64748b" text-anchor="start">ДАТА СОЗДАНИЯ</text><line x1="304" y1="502" x2="1378" y2="502" stroke="#e2e8f0"/><text x="326" y="480" font-family="Inter, Segoe UI, Arial, sans-serif" font-size="14" font-weight="700" fill="#0f172a" text-anchor="start">HR-2026-014</text><text x="496" y="480" font-family="Inter, Segoe UI, Arial, sans-serif" font-size="14" font-weight="500" fill="#475569" text-anchor="start">Приказ о приеме</text><text x="806" y="480" font-family="Inter, Segoe UI, Arial, sans-serif" font-size="14" font-weight="500" fill="#475569" text-anchor="start">Иванов И.И.</text><rect x="1036" y="460" width="126" height="28" rx="14" fill="#faf5ff" stroke="rgba(126 34 206, .25)"/><text x="1099" y="479" font-family="Inter, Segoe UI, Arial, sans-serif" font-size="13" font-weight="600" fill="rgb(126 34 206)" text-anchor="middle">На подписи</text><text x="1216" y="480" font-family="Inter, Segoe UI, Arial, sans-serif" font-size="14" font-weight="500" fill="#475569" text-anchor="start">15.06.2026</text><line x1="304" y1="560" x2="1378" y2="560" stroke="#e2e8f0"/><text x="326" y="538" font-family="Inter, Segoe UI, Arial, sans-serif" font-size="14" font-weight="700" fill="#0f172a" text-anchor="start">HR-2026-013</text><text x="496" y="538" font-family="Inter, Segoe UI, Arial, sans-serif" font-size="14" font-weight="500" fill="#475569" text-anchor="start">Трудовой договор</text><text x="806" y="538" font-family="Inter, Segoe UI, Arial, sans-serif" font-size="14" font-weight="500" fill="#475569" text-anchor="start">Петрова А.А.</text><rect x="1036" y="518" width="108" height="28" rx="14" fill="#fefce8" stroke="rgba(161 98 7, .25)"/><text x="1090" y="537" font-family="Inter, Segoe UI, Arial, sans-serif" font-size="13" font-weight="600" fill="rgb(161 98 7)" text-anchor="middle">Черновик</text><text x="1216" y="538" font-family="Inter, Segoe UI, Arial, sans-serif" font-size="14" font-weight="500" fill="#475569" text-anchor="start">14.06.2026</text><line x1="304" y1="618" x2="1378" y2="618" stroke="#e2e8f0"/><text x="326" y="596" font-family="Inter, Segoe UI, Arial, sans-serif" font-size="14" font-weight="700" fill="#0f172a" text-anchor="start">HR-2026-012</text><text x="496" y="596" font-family="Inter, Segoe UI, Arial, sans-serif" font-size="14" font-weight="500" fill="#475569" text-anchor="start">Приказ о переводе</text><text x="806" y="596" font-family="Inter, Segoe UI, Arial, sans-serif" font-size="14" font-weight="500" fill="#475569" text-anchor="start">Орлова М.С.</text><rect x="1036" y="576" width="104" height="28" rx="14" fill="#f0fdf4" stroke="rgba(21 128 61, .25)"/><text x="1088" y="595" font-family="Inter, Segoe UI, Arial, sans-serif" font-size="13" font-weight="600" fill="rgb(21 128 61)" text-anchor="middle">Подписан</text><text x="1216" y="596" font-family="Inter, Segoe UI, Arial, sans-serif" font-size="14" font-weight="500" fill="#475569" text-anchor="start">12.06.2026</text><line x1="304" y1="676" x2="1378" y2="676" stroke="#e2e8f0"/><text x="326" y="654" font-family="Inter, Segoe UI, Arial, sans-serif" font-size="14" font-weight="700" fill="#0f172a" text-anchor="start">HR-2026-011</text><text x="496" y="654" font-family="Inter, Segoe UI, Arial, sans-serif" font-size="14" font-weight="500" fill="#475569" text-anchor="start">Заявление</text><text x="806" y="654" font-family="Inter, Segoe UI, Arial, sans-serif" font-size="14" font-weight="500" fill="#475569" text-anchor="start">Сидоров П.П.</text><rect x="1036" y="634" width="116" height="28" rx="14" fill="#eff6ff" stroke="rgba(29 78 216, .25)"/><text x="1094" y="653" font-family="Inter, Segoe UI, Arial, sans-serif" font-size="13" font-weight="600" fill="rgb(29 78 216)" text-anchor="middle">Напечатан</text><text x="1216" y="654" font-family="Inter, Segoe UI, Arial, sans-serif" font-size="14" font-weight="500" fill="#475569" text-anchor="start">10.06.2026</text>
  
</svg>
