<?xml version="1.0" encoding="UTF-8"?>
<svg width="1440" height="960" viewBox="0 0 1440 960" fill="none" xmlns="http://www.w3.org/2000/svg">
  <title>Реальный макет: просмотр документа</title>
  <rect width="1440" height="960" fill="#f8fafc"/>
  
    
    <rect x="0" y="0" width="260" height="960" fill="#ffffff"/>
    <line x1="260" y1="0" x2="260" y2="960" stroke="#e2e8f0"/>
    <rect x="18" y="22" width="40" height="40" rx="12" fill="#eff6ff" stroke="#bfdbfe"/><path d="M38 34 L48 39 V49 C48 56 42 59 38 61 C34 59 28 56 28 49 V39 L38 34Z" stroke="#2563eb" stroke-width="2.5" fill="none"/>
    <text x="70" y="46" font-family="Inter, Segoe UI, Arial, sans-serif" font-size="14" font-weight="800" fill="#0f172a" text-anchor="start">HR Docs</text>
    <text x="70" y="64" font-family="Inter, Segoe UI, Arial, sans-serif" font-size="10" font-weight="700" fill="#64748b" text-anchor="start">СИСТЕМА АВТОМАТИЗАЦИИ</text>
    <text x="18" y="118" font-family="Inter, Segoe UI, Arial, sans-serif" font-size="12" font-weight="700" fill="#94a3b8" text-anchor="start">УПРАВЛЕНИЕ</text>
    
      <rect x="14" y="130" width="232" height="44" rx="8" fill="#ffffff" stroke="#ffffff"/>
      <circle cx="38" cy="152" r="7" fill="#94a3b8"/>
      <text x="58" y="157" font-family="Inter, Segoe UI, Arial, sans-serif" font-size="14" font-weight="500" fill="#64748b" text-anchor="start">Главная</text>
    
      <rect x="14" y="180" width="232" height="44" rx="8" fill="#eff6ff" stroke="#dbeafe"/>
      <circle cx="38" cy="202" r="7" fill="#2563eb"/>
      <text x="58" y="207" font-family="Inter, Segoe UI, Arial, sans-serif" font-size="14" font-weight="700" fill="#2563eb" text-anchor="start">Документы</text>
    
    <line x1="0" y1="842" x2="260" y2="842" stroke="#e2e8f0"/>
    <circle cx="36" cy="884" r="17" fill="#eff6ff" stroke="#bfdbfe"/>
    <text x="36" y="890" font-family="Inter, Segoe UI, Arial, sans-serif" font-size="12" font-weight="800" fill="#2563eb" text-anchor="middle">di</text>
    <text x="64" y="878" font-family="Inter, Segoe UI, Arial, sans-serif" font-size="14" font-weight="600" fill="#0f172a" text-anchor="start">director</text>
    <text x="64" y="899" font-family="Inter, Segoe UI, Arial, sans-serif" font-size="12" font-weight="400" fill="#64748b" text-anchor="start">Директор</text>
  
    <rect x="304" y="34" width="190" height="40" rx="8" fill="#ffffff" stroke="#dbe3ee"/><text x="399" y="60" font-family="Inter, Segoe UI, Arial, sans-serif" font-size="14" font-weight="600" fill="#334155" text-anchor="middle">← Реестр документов</text>
    <rect x="1018" y="34" width="122" height="40" rx="8" fill="#ffffff" stroke="#dbe3ee"/><text x="1079" y="60" font-family="Inter, Segoe UI, Arial, sans-serif" font-size="14" font-weight="600" fill="#334155" text-anchor="middle">Печать</text>
    <rect x="1158" y="34" width="220" height="40" rx="8" fill="#2563eb" stroke="#2563eb"/><text x="1268" y="60" font-family="Inter, Segoe UI, Arial, sans-serif" font-size="14" font-weight="600" fill="#fff" text-anchor="middle">Подписать документ</text>
    <rect x="304" y="96" width="790" height="798" rx="8" fill="#ffffff" stroke="#e5e7eb"/>
    <text x="699" y="178" font-family="Inter, Segoe UI, Arial, sans-serif" font-size="26" font-weight="800" fill="#000" text-anchor="middle">ПРИКАЗ О ПРИЕМЕ</text>
    <text x="699" y="210" font-family="Inter, Segoe UI, Arial, sans-serif" font-size="14" font-weight="400" fill="#475569" text-anchor="middle">№ HR-2026-014 от 15.06.2026</text>
    <line x1="374" y1="246" x2="1024" y2="246" stroke="#111827"/>
    <text x="374" y="306" font-family="Inter, Segoe UI, Arial, sans-serif" font-size="18" font-weight="400" fill="#111827" text-anchor="start">Принять Иванова Ивана Ивановича на должность HR-специалиста</text>
    <line x1="374" y1="350" x2="1024" y2="350" stroke="#cbd5e1"/>
    <line x1="374" y1="398" x2="1024" y2="398" stroke="#cbd5e1"/>
    <line x1="374" y1="446" x2="1024" y2="446" stroke="#cbd5e1"/>
    <line x1="374" y1="494" x2="1024" y2="494" stroke="#cbd5e1"/>
    <line x1="374" y1="542" x2="1024" y2="542" stroke="#cbd5e1"/>
    <line x1="374" y1="590" x2="1024" y2="590" stroke="#cbd5e1"/>
    <line x1="374" y1="658" x2="1024" y2="658" stroke="#cbd5e1"/>
    <text x="374" y="730" font-family="Inter, Segoe UI, Arial, sans-serif" font-size="16" font-weight="800" fill="#111827" text-anchor="start">РАБОТОДАТЕЛЬ:</text>
    <text x="714" y="730" font-family="Inter, Segoe UI, Arial, sans-serif" font-size="16" font-weight="800" fill="#111827" text-anchor="start">РАБОТНИК:</text>
    <line x1="374" y1="790" x2="614" y2="790" stroke="#111827"/><line x1="714" y1="790" x2="1024" y2="790" stroke="#111827"/>
    <path d="M404 778 C450 730 484 812 534 762 C570 728 600 784 626 752" stroke="#111827" stroke-width="3" fill="none"/>
    <text x="494" y="820" font-family="Inter, Segoe UI, Arial, sans-serif" font-size="13" font-weight="400" fill="#64748b" text-anchor="middle">Директор / подпись</text>
    <text x="870" y="820" font-family="Inter, Segoe UI, Arial, sans-serif" font-size="13" font-weight="400" fill="#64748b" text-anchor="middle">подпись / расшифровка</text>
    <rect x="1124" y="96" width="254" height="244" rx="12" fill="#ffffff" stroke="#e2e8f0"/>
    <text x="1154" y="136" font-family="Inter, Segoe UI, Arial, sans-serif" font-size="17" font-weight="700" fill="#0f172a" text-anchor="start">Атрибуты</text>
    <text x="1154" y="184" font-family="Inter, Segoe UI, Arial, sans-serif" font-size="13" font-weight="400" fill="#64748b" text-anchor="start">Номер</text><text x="1154" y="208" font-family="Inter, Segoe UI, Arial, sans-serif" font-size="14" font-weight="700" fill="#0f172a" text-anchor="start">HR-2026-014</text>
    <text x="1154" y="250" font-family="Inter, Segoe UI, Arial, sans-serif" font-size="13" font-weight="400" fill="#64748b" text-anchor="start">Сотрудник</text><text x="1154" y="274" font-family="Inter, Segoe UI, Arial, sans-serif" font-size="14" font-weight="700" fill="#0f172a" text-anchor="start">Иванов И.И.</text>
    <rect x="1154" y="300" width="126" height="28" rx="14" fill="#faf5ff" stroke="rgba(126 34 206, .25)"/><text x="1217" y="319" font-family="Inter, Segoe UI, Arial, sans-serif" font-size="13" font-weight="600" fill="rgb(126 34 206)" text-anchor="middle">На подписи</text>
    <rect x="1124" y="366" width="254" height="288" rx="12" fill="#ffffff" stroke="#e2e8f0"/>
    <text x="1154" y="406" font-family="Inter, Segoe UI, Arial, sans-serif" font-size="17" font-weight="700" fill="#0f172a" text-anchor="start">Подпись директора</text>
    <text x="1154" y="450" font-family="Inter, Segoe UI, Arial, sans-serif" font-size="14" font-weight="500" fill="#334155" text-anchor="start">Расшифровка</text><rect x="1154" y="462" width="194" height="42" rx="8" fill="#fff" stroke="#dbe3ee"/><text x="1168" y="489" font-family="Inter, Segoe UI, Arial, sans-serif" font-size="14" font-weight="400" fill="#64748b" text-anchor="start">Директор</text>
    <rect x="1154" y="546" width="194" height="58" rx="8" fill="#ffffff" stroke="#dbe3ee"/>
    <path d="M1180 582 C1210 550 1230 604 1262 570 C1286 544 1308 590 1330 562" stroke="#111827" stroke-width="3" fill="none"/>
    <rect x="1154" y="626" width="94" height="40" rx="8" fill="#ffffff" stroke="#dbe3ee"/><text x="1201" y="652" font-family="Inter, Segoe UI, Arial, sans-serif" font-size="14" font-weight="600" fill="#334155" text-anchor="middle">Загрузить</text><rect x="1260" y="626" width="88" height="40" rx="8" fill="#ffffff" stroke="#dbe3ee"/><text x="1304" y="652" font-family="Inter, Segoe UI, Arial, sans-serif" font-size="14" font-weight="600" fill="#334155" text-anchor="middle">Очистить</text>
  
</svg>
