<?xml version="1.0" encoding="UTF-8"?>
<svg width="1440" height="960" viewBox="0 0 1440 960" fill="none" xmlns="http://www.w3.org/2000/svg">
  <title>Экран входа</title>
  <rect width="1440" height="960" fill="#F5F7FA"/>
  
    <rect x="0" y="0" width="1440" height="960" fill="#F5F7FA"/>
    <rect x="930" y="0" width="510" height="960" fill="#EAF1FF"/>
    <rect x="1000" y="130" width="300" height="300" rx="18" fill="#FFFFFF" stroke="#C8D7F2"/>
    <path d="M1150 210 L1210 238 V300 C1210 352 1176 382 1150 394 C1124 382 1090 352 1090 300 V238 L1150 210Z" stroke="#2563EB" stroke-width="8" fill="none"/>
    <path d="M1126 300 L1145 319 L1178 274" stroke="#2563EB" stroke-width="9" stroke-linecap="round" stroke-linejoin="round"/>
    <text x="190" y="190" font-family="Inter, Segoe UI, Arial, sans-serif" font-size="38" font-weight="800" fill="#172033" text-anchor="start">Вход в систему</text>
    <text x="190" y="226" font-family="Inter, Segoe UI, Arial, sans-serif" font-size="18" font-weight="400" fill="#66758B" text-anchor="start">Автоматизация HR-документов</text>
    <rect x="190" y="292" width="500" height="420" rx="10" fill="#FFFFFF" stroke="#DDE4EE"/>
    <text x="230" y="356" font-family="Inter, Segoe UI, Arial, sans-serif" font-size="14" font-weight="600" fill="#36445A" text-anchor="start">Имя пользователя</text><rect x="230" y="368" width="420" height="44" rx="6" fill="#FFFFFF" stroke="#D8E1EC"/><text x="244" y="397" font-family="Inter, Segoe UI, Arial, sans-serif" font-size="14" font-weight="400" fill="#66758B" text-anchor="start">hr</text>
    <text x="230" y="442" font-family="Inter, Segoe UI, Arial, sans-serif" font-size="14" font-weight="600" fill="#36445A" text-anchor="start">Пароль</text><rect x="230" y="454" width="420" height="44" rx="6" fill="#FFFFFF" stroke="#D8E1EC"/><text x="244" y="483" font-family="Inter, Segoe UI, Arial, sans-serif" font-size="14" font-weight="400" fill="#66758B" text-anchor="start">••••••</text>
    <rect x="230" y="544" width="420" height="42" rx="6" fill="#2563EB" stroke="#2563EB"/><text x="440" y="571" font-family="Inter, Segoe UI, Arial, sans-serif" font-size="15" font-weight="700" fill="#FFFFFF" text-anchor="middle">Войти</text>
    <line x1="230" y1="620" x2="650" y2="620" stroke="#E6ECF4"/>
    <text x="440" y="662" font-family="Inter, Segoe UI, Arial, sans-serif" font-size="14" font-weight="500" fill="#66758B" text-anchor="middle">Логин: hr · Пароль: hr2024</text>
    <text x="440" y="688" font-family="Inter, Segoe UI, Arial, sans-serif" font-size="14" font-weight="400" fill="#66758B" text-anchor="middle">Доступ разрешен только сотрудникам HR-отдела</text>
  
</svg>
