<?xml version="1.0" encoding="UTF-8"?>
<svg width="1440" height="960" viewBox="0 0 1440 960" fill="none" xmlns="http://www.w3.org/2000/svg">
  <title>Панель HR</title>
  <rect width="1440" height="960" fill="#F5F7FA"/>
  
    
    <rect x="0" y="0" width="260" height="960" fill="#FFFFFF"/>
    <line x1="260" y1="0" x2="260" y2="960" stroke="#E0E6EF"/>
    <rect x="28" y="34" width="46" height="46" rx="10" fill="#EAF1FF" stroke="#BDD0FF"/>
    <path d="M52 46 L63 51 V61 C63 68 57 72 52 74 C47 72 41 68 41 61 V51 L52 46Z" stroke="#2563EB" stroke-width="3" fill="none"/>
    <text x="86" y="56" font-family="Inter, Segoe UI, Arial, sans-serif" font-size="22" font-weight="800" fill="#172033" text-anchor="start">HR Docs</text>
    <text x="86" y="78" font-family="Inter, Segoe UI, Arial, sans-serif" font-size="13" font-weight="600" fill="#6A7890" text-anchor="start">HR</text>
    <rect x="24" y="158" width="212" height="44" rx="6" fill="#EAF1FF" stroke="#BDD0FF"/>
      <circle cx="48" cy="180" r="8" fill="#2563EB"/>
      <text x="68" y="186" font-family="Inter, Segoe UI, Arial, sans-serif" font-size="15" font-weight="700" fill="#1D4ED8" text-anchor="start">Главная</text>
<rect x="24" y="212" width="212" height="44" rx="6" fill="#FFFFFF" stroke="#FFFFFF"/>
      <circle cx="48" cy="234" r="8" fill="#A7B4C6"/>
      <text x="68" y="240" font-family="Inter, Segoe UI, Arial, sans-serif" font-size="15" font-weight="500" fill="#526174" text-anchor="start">Сотрудники</text>
<rect x="24" y="266" width="212" height="44" rx="6" fill="#FFFFFF" stroke="#FFFFFF"/>
      <circle cx="48" cy="288" r="8" fill="#A7B4C6"/>
      <text x="68" y="294" font-family="Inter, Segoe UI, Arial, sans-serif" font-size="15" font-weight="500" fill="#526174" text-anchor="start">Документы</text>
<rect x="24" y="320" width="212" height="44" rx="6" fill="#FFFFFF" stroke="#FFFFFF"/>
      <circle cx="48" cy="342" r="8" fill="#A7B4C6"/>
      <text x="68" y="348" font-family="Inter, Segoe UI, Arial, sans-serif" font-size="15" font-weight="500" fill="#526174" text-anchor="start">Шаблоны</text>
    <rect x="24" y="850" width="212" height="70" rx="8" fill="#F7F9FC" stroke="#E4EAF2"/>
    <text x="46" y="880" font-family="Inter, Segoe UI, Arial, sans-serif" font-size="15" font-weight="700" fill="#172033" text-anchor="start">hr</text>
    <text x="46" y="904" font-family="Inter, Segoe UI, Arial, sans-serif" font-size="13" font-weight="400" fill="#6A7890" text-anchor="start">HR-отдел</text>
  
    
    <text x="304" y="60" font-family="Inter, Segoe UI, Arial, sans-serif" font-size="30" font-weight="800" fill="#172033" text-anchor="start">Панель управления</text>
    <text x="304" y="88" font-family="Inter, Segoe UI, Arial, sans-serif" font-size="15" font-weight="400" fill="#66758B" text-anchor="start">Ключевые показатели документооборота и быстрые действия</text>
    <rect x="1096" y="34" width="248" height="44" rx="22" fill="#FFFFFF" stroke="#DCE4EF"/>
    <circle cx="1120" cy="56" r="8" fill="#9AA8BA"/>
    <text x="1140" y="62" font-family="Inter, Segoe UI, Arial, sans-serif" font-size="14" font-weight="400" fill="#7B8797" text-anchor="start">Поиск по документам</text>
  
    
    <rect x="304" y="130" width="244" height="116" rx="8" fill="#FFFFFF" stroke="#DDE4EE"/>
    <rect x="324" y="150" width="44" height="44" rx="10" fill="#2563EB22"/>
    <circle cx="346" cy="172" r="10" fill="#2563EB"/>
    <text x="386" y="173" font-family="Inter, Segoe UI, Arial, sans-serif" font-size="28" font-weight="800" fill="#172033" text-anchor="start">24</text>
    <text x="386" y="200" font-family="Inter, Segoe UI, Arial, sans-serif" font-size="14" font-weight="500" fill="#66758B" text-anchor="start">Сотрудников</text>
  
    
    <rect x="574" y="130" width="244" height="116" rx="8" fill="#FFFFFF" stroke="#DDE4EE"/>
    <rect x="594" y="150" width="44" height="44" rx="10" fill="#14B8A622"/>
    <circle cx="616" cy="172" r="10" fill="#14B8A6"/>
    <text x="656" y="173" font-family="Inter, Segoe UI, Arial, sans-serif" font-size="28" font-weight="800" fill="#172033" text-anchor="start">58</text>
    <text x="656" y="200" font-family="Inter, Segoe UI, Arial, sans-serif" font-size="14" font-weight="500" fill="#66758B" text-anchor="start">Документов</text>
  
    
    <rect x="844" y="130" width="244" height="116" rx="8" fill="#FFFFFF" stroke="#DDE4EE"/>
    <rect x="864" y="150" width="44" height="44" rx="10" fill="#F59E0B22"/>
    <circle cx="886" cy="172" r="10" fill="#F59E0B"/>
    <text x="926" y="173" font-family="Inter, Segoe UI, Arial, sans-serif" font-size="28" font-weight="800" fill="#172033" text-anchor="start">7</text>
    <text x="926" y="200" font-family="Inter, Segoe UI, Arial, sans-serif" font-size="14" font-weight="500" fill="#66758B" text-anchor="start">Ожидают подписи</text>
  
    
    <rect x="1114" y="130" width="244" height="116" rx="8" fill="#FFFFFF" stroke="#DDE4EE"/>
    <rect x="1134" y="150" width="44" height="44" rx="10" fill="#22C55E22"/>
    <circle cx="1156" cy="172" r="10" fill="#22C55E"/>
    <text x="1196" y="173" font-family="Inter, Segoe UI, Arial, sans-serif" font-size="28" font-weight="800" fill="#172033" text-anchor="start">43</text>
    <text x="1196" y="200" font-family="Inter, Segoe UI, Arial, sans-serif" font-size="14" font-weight="500" fill="#66758B" text-anchor="start">Подписано</text>
  
    <rect x="304" y="286" width="650" height="286" rx="8" fill="#FFFFFF" stroke="#DDE4EE"/>
    <text x="330" y="326" font-family="Inter, Segoe UI, Arial, sans-serif" font-size="20" font-weight="800" fill="#172033" text-anchor="start">Последние документы</text>
    <rect x="330" y="352" width="530" height="218" rx="8" fill="#FFFFFF" stroke="#DDE4EE"/>
    <rect x="330" y="352" width="530" height="56" rx="8" fill="#F8FAFD"/>
    <line x1="330" y1="408" x2="860" y2="408" stroke="#E6ECF4"/><text x="348" y="387" font-family="Inter, Segoe UI, Arial, sans-serif" font-size="13" font-weight="700" fill="#5C6A7D" text-anchor="start">Документ</text><text x="568" y="387" font-family="Inter, Segoe UI, Arial, sans-serif" font-size="13" font-weight="700" fill="#5C6A7D" text-anchor="start">Сотрудник</text><text x="718" y="387" font-family="Inter, Segoe UI, Arial, sans-serif" font-size="13" font-weight="700" fill="#5C6A7D" text-anchor="start">Статус</text><line x1="330" y1="462" x2="860" y2="462" stroke="#E6ECF4"/><text x="348" y="442" font-family="Inter, Segoe UI, Arial, sans-serif" font-size="14" font-weight="500" fill="#172033" text-anchor="start">Приказ о приеме</text><text x="568" y="442" font-family="Inter, Segoe UI, Arial, sans-serif" font-size="14" font-weight="500" fill="#526174" text-anchor="start">Иванов И.И.</text><rect x="718" y="422" width="132" height="28" rx="14" fill="#FEF3C7" stroke="none"/><text x="784" y="441" font-family="Inter, Segoe UI, Arial, sans-serif" font-size="13" font-weight="600" fill="#B45309" text-anchor="middle">На подписи</text><line x1="330" y1="516" x2="860" y2="516" stroke="#E6ECF4"/><text x="348" y="496" font-family="Inter, Segoe UI, Arial, sans-serif" font-size="14" font-weight="500" fill="#172033" text-anchor="start">Трудовой договор</text><text x="568" y="496" font-family="Inter, Segoe UI, Arial, sans-serif" font-size="14" font-weight="500" fill="#526174" text-anchor="start">Петрова А.А.</text><rect x="718" y="476" width="112" height="28" rx="14" fill="#E5E7EB" stroke="none"/><text x="774" y="495" font-family="Inter, Segoe UI, Arial, sans-serif" font-size="13" font-weight="600" fill="#4B5563" text-anchor="middle">Черновик</text><line x1="330" y1="570" x2="860" y2="570" stroke="#E6ECF4"/><text x="348" y="550" font-family="Inter, Segoe UI, Arial, sans-serif" font-size="14" font-weight="500" fill="#172033" text-anchor="start">Приказ о переводе</text><text x="568" y="550" font-family="Inter, Segoe UI, Arial, sans-serif" font-size="14" font-weight="500" fill="#526174" text-anchor="start">Сидоров П.П.</text><rect x="718" y="530" width="116" height="28" rx="14" fill="#DCFCE7" stroke="none"/><text x="776" y="549" font-family="Inter, Segoe UI, Arial, sans-serif" font-size="13" font-weight="600" fill="#15803D" text-anchor="middle">Подписано</text>
    <rect x="984" y="286" width="360" height="286" rx="8" fill="#FFFFFF" stroke="#DDE4EE"/>
    <text x="1010" y="326" font-family="Inter, Segoe UI, Arial, sans-serif" font-size="20" font-weight="800" fill="#172033" text-anchor="start">Быстрые действия</text>
    <rect x="1010" y="360" width="288" height="42" rx="6" fill="#2563EB" stroke="#2563EB"/><text x="1154" y="387" font-family="Inter, Segoe UI, Arial, sans-serif" font-size="15" font-weight="700" fill="#FFFFFF" text-anchor="middle">Создать сотрудника</text>
    <rect x="1010" y="420" width="288" height="42" rx="6" fill="#FFFFFF" stroke="#D6DEE9"/><text x="1154" y="447" font-family="Inter, Segoe UI, Arial, sans-serif" font-size="15" font-weight="700" fill="#2D3B50" text-anchor="middle">Создать документ</text>
    <rect x="1010" y="480" width="288" height="42" rx="6" fill="#FFFFFF" stroke="#D6DEE9"/><text x="1154" y="507" font-family="Inter, Segoe UI, Arial, sans-serif" font-size="15" font-weight="700" fill="#2D3B50" text-anchor="middle">Открыть шаблоны</text>
    <rect x="304" y="606" width="1040" height="230" rx="8" fill="#FFFFFF" stroke="#DDE4EE"/>
    <text x="330" y="646" font-family="Inter, Segoe UI, Arial, sans-serif" font-size="20" font-weight="800" fill="#172033" text-anchor="start">Маршрут согласования</text>
    <line x1="420" y1="735" x2="1220" y2="735" stroke="#C8D7F2"/>
    <circle cx="420" cy="735" r="34" fill="#EAF1FF" stroke="#2563EB" stroke-width="3"/>
    <circle cx="820" cy="735" r="34" fill="#FEF3C7" stroke="#F59E0B" stroke-width="3"/>
    <circle cx="1220" cy="735" r="34" fill="#DCFCE7" stroke="#22C55E" stroke-width="3"/>
    <text x="420" y="795" font-family="Inter, Segoe UI, Arial, sans-serif" font-size="15" font-weight="700" fill="#172033" text-anchor="middle">HR создает</text>
    <text x="820" y="795" font-family="Inter, Segoe UI, Arial, sans-serif" font-size="15" font-weight="700" fill="#172033" text-anchor="middle">Директор подписывает</text>
    <text x="1220" y="795" font-family="Inter, Segoe UI, Arial, sans-serif" font-size="15" font-weight="700" fill="#172033" text-anchor="middle">Документ готов</text>
  
</svg>
