<?xml version="1.0" encoding="UTF-8"?>
<svg width="1440" height="960" viewBox="0 0 1440 960" fill="none" xmlns="http://www.w3.org/2000/svg">
  <title>Создание документа</title>
  <rect width="1440" height="960" fill="#F5F7FA"/>
  
    
    <rect x="0" y="0" width="260" height="960" fill="#FFFFFF"/>
    <line x1="260" y1="0" x2="260" y2="960" stroke="#E0E6EF"/>
    <rect x="28" y="34" width="46" height="46" rx="10" fill="#EAF1FF" stroke="#BDD0FF"/>
    <path d="M52 46 L63 51 V61 C63 68 57 72 52 74 C47 72 41 68 41 61 V51 L52 46Z" stroke="#2563EB" stroke-width="3" fill="none"/>
    <text x="86" y="56" font-family="Inter, Segoe UI, Arial, sans-serif" font-size="22" font-weight="800" fill="#172033" text-anchor="start">HR Docs</text>
    <text x="86" y="78" font-family="Inter, Segoe UI, Arial, sans-serif" font-size="13" font-weight="600" fill="#6A7890" text-anchor="start">HR</text>
    <rect x="24" y="158" width="212" height="44" rx="6" fill="#FFFFFF" stroke="#FFFFFF"/>
      <circle cx="48" cy="180" r="8" fill="#A7B4C6"/>
      <text x="68" y="186" font-family="Inter, Segoe UI, Arial, sans-serif" font-size="15" font-weight="500" fill="#526174" text-anchor="start">Главная</text>
<rect x="24" y="212" width="212" height="44" rx="6" fill="#FFFFFF" stroke="#FFFFFF"/>
      <circle cx="48" cy="234" r="8" fill="#A7B4C6"/>
      <text x="68" y="240" font-family="Inter, Segoe UI, Arial, sans-serif" font-size="15" font-weight="500" fill="#526174" text-anchor="start">Сотрудники</text>
<rect x="24" y="266" width="212" height="44" rx="6" fill="#EAF1FF" stroke="#BDD0FF"/>
      <circle cx="48" cy="288" r="8" fill="#2563EB"/>
      <text x="68" y="294" font-family="Inter, Segoe UI, Arial, sans-serif" font-size="15" font-weight="700" fill="#1D4ED8" text-anchor="start">Документы</text>
<rect x="24" y="320" width="212" height="44" rx="6" fill="#FFFFFF" stroke="#FFFFFF"/>
      <circle cx="48" cy="342" r="8" fill="#A7B4C6"/>
      <text x="68" y="348" font-family="Inter, Segoe UI, Arial, sans-serif" font-size="15" font-weight="500" fill="#526174" text-anchor="start">Шаблоны</text>
    <rect x="24" y="850" width="212" height="70" rx="8" fill="#F7F9FC" stroke="#E4EAF2"/>
    <text x="46" y="880" font-family="Inter, Segoe UI, Arial, sans-serif" font-size="15" font-weight="700" fill="#172033" text-anchor="start">hr</text>
    <text x="46" y="904" font-family="Inter, Segoe UI, Arial, sans-serif" font-size="13" font-weight="400" fill="#6A7890" text-anchor="start">HR-отдел</text>
  
    
    <text x="304" y="60" font-family="Inter, Segoe UI, Arial, sans-serif" font-size="30" font-weight="800" fill="#172033" text-anchor="start">Создание документа</text>
    <text x="304" y="88" font-family="Inter, Segoe UI, Arial, sans-serif" font-size="15" font-weight="400" fill="#66758B" text-anchor="start">Заполнение шаблона кадрового документа</text>
    <rect x="1096" y="34" width="248" height="44" rx="22" fill="#FFFFFF" stroke="#DCE4EF"/>
    <circle cx="1120" cy="56" r="8" fill="#9AA8BA"/>
    <text x="1140" y="62" font-family="Inter, Segoe UI, Arial, sans-serif" font-size="14" font-weight="400" fill="#7B8797" text-anchor="start">Поиск по документам</text>
  
    <rect x="304" y="124" width="650" height="660" rx="8" fill="#FFFFFF" stroke="#DDE4EE"/>
    <text x="334" y="166" font-family="Inter, Segoe UI, Arial, sans-serif" font-size="22" font-weight="800" fill="#172033" text-anchor="start">Параметры документа</text>
    <text x="334" y="218" font-family="Inter, Segoe UI, Arial, sans-serif" font-size="14" font-weight="600" fill="#36445A" text-anchor="start">Сотрудник</text><rect x="334" y="230" width="560" height="44" rx="6" fill="#FFFFFF" stroke="#D8E1EC"/><text x="348" y="259" font-family="Inter, Segoe UI, Arial, sans-serif" font-size="14" font-weight="400" fill="#66758B" text-anchor="start">Иванов Иван Иванович</text>
    <text x="334" y="306" font-family="Inter, Segoe UI, Arial, sans-serif" font-size="14" font-weight="600" fill="#36445A" text-anchor="start">Шаблон</text><rect x="334" y="318" width="560" height="44" rx="6" fill="#FFFFFF" stroke="#D8E1EC"/><text x="348" y="347" font-family="Inter, Segoe UI, Arial, sans-serif" font-size="14" font-weight="400" fill="#66758B" text-anchor="start">Приказ о приеме на работу</text>
    <text x="334" y="394" font-family="Inter, Segoe UI, Arial, sans-serif" font-size="14" font-weight="600" fill="#36445A" text-anchor="start">Дата документа</text><rect x="334" y="406" width="260" height="44" rx="6" fill="#FFFFFF" stroke="#D8E1EC"/><text x="348" y="435" font-family="Inter, Segoe UI, Arial, sans-serif" font-size="14" font-weight="400" fill="#66758B" text-anchor="start">15.06.2026</text>
    <text x="634" y="394" font-family="Inter, Segoe UI, Arial, sans-serif" font-size="14" font-weight="600" fill="#36445A" text-anchor="start">Номер документа</text><rect x="634" y="406" width="260" height="44" rx="6" fill="#FFFFFF" stroke="#D8E1EC"/><text x="648" y="435" font-family="Inter, Segoe UI, Arial, sans-serif" font-size="14" font-weight="400" fill="#66758B" text-anchor="start">HR-2026-014</text>
    <text x="334" y="482" font-family="Inter, Segoe UI, Arial, sans-serif" font-size="14" font-weight="600" fill="#36445A" text-anchor="start">Должность</text><rect x="334" y="494" width="560" height="44" rx="6" fill="#FFFFFF" stroke="#D8E1EC"/><text x="348" y="523" font-family="Inter, Segoe UI, Arial, sans-serif" font-size="14" font-weight="400" fill="#66758B" text-anchor="start">HR-специалист</text>
    <text x="334" y="570" font-family="Inter, Segoe UI, Arial, sans-serif" font-size="14" font-weight="600" fill="#36445A" text-anchor="start">Оклад</text><rect x="334" y="582" width="560" height="44" rx="6" fill="#FFFFFF" stroke="#D8E1EC"/><text x="348" y="611" font-family="Inter, Segoe UI, Arial, sans-serif" font-size="14" font-weight="400" fill="#66758B" text-anchor="start">85 000 руб.</text>
    <rect x="334" y="690" width="250" height="42" rx="6" fill="#2563EB" stroke="#2563EB"/><text x="459" y="717" font-family="Inter, Segoe UI, Arial, sans-serif" font-size="15" font-weight="700" fill="#FFFFFF" text-anchor="middle">Сформировать</text>
    <rect x="604" y="690" width="290" height="42" rx="6" fill="#FFFFFF" stroke="#D6DEE9"/><text x="749" y="717" font-family="Inter, Segoe UI, Arial, sans-serif" font-size="15" font-weight="700" fill="#2D3B50" text-anchor="middle">Отправить на подпись</text>
    <rect x="990" y="124" width="354" height="660" rx="8" fill="#FFFFFF" stroke="#DDE4EE"/>
    <text x="1020" y="166" font-family="Inter, Segoe UI, Arial, sans-serif" font-size="22" font-weight="800" fill="#172033" text-anchor="start">Предпросмотр</text>
    <rect x="1034" y="210" width="280" height="420" rx="4" fill="#FFFFFF" stroke="#CBD5E1"/>
    <text x="1174" y="256" font-family="Inter, Segoe UI, Arial, sans-serif" font-size="18" font-weight="800" fill="#172033" text-anchor="middle">ПРИКАЗ</text>
    <line x1="1064" y1="294" x2="1284" y2="294" stroke="#CBD5E1"/>
    <line x1="1064" y1="326" x2="1284" y2="326" stroke="#CBD5E1"/>
    <line x1="1064" y1="358" x2="1284" y2="358" stroke="#CBD5E1"/>
    <line x1="1064" y1="420" x2="1284" y2="420" stroke="#CBD5E1"/>
    <line x1="1064" y1="452" x2="1284" y2="452" stroke="#CBD5E1"/>
    <line x1="1064" y1="514" x2="1284" y2="514" stroke="#CBD5E1"/>
    <text x="1070" y="572" font-family="Inter, Segoe UI, Arial, sans-serif" font-size="13" font-weight="500" fill="#66758B" text-anchor="start">HR-специалист</text>
    <line x1="1170" y1="572" x2="1284" y2="572" stroke="#94A3B8"/>
    <rect x="1034" y="656" width="154" height="28" rx="14" fill="#E5E7EB" stroke="none"/><text x="1111" y="675" font-family="Inter, Segoe UI, Arial, sans-serif" font-size="13" font-weight="600" fill="#4B5563" text-anchor="middle">Черновик</text>
  
</svg>
