<?xml version="1.0" encoding="UTF-8"?>
<svg width="1440" height="960" viewBox="0 0 1440 960" fill="none" xmlns="http://www.w3.org/2000/svg">
  <title>Кабинет директора</title>
  <rect width="1440" height="960" fill="#F5F7FA"/>
  
    
    <rect x="0" y="0" width="260" height="960" fill="#FFFFFF"/>
    <line x1="260" y1="0" x2="260" y2="960" stroke="#E0E6EF"/>
    <rect x="28" y="34" width="46" height="46" rx="10" fill="#EAF1FF" stroke="#BDD0FF"/>
    <path d="M52 46 L63 51 V61 C63 68 57 72 52 74 C47 72 41 68 41 61 V51 L52 46Z" stroke="#2563EB" stroke-width="3" fill="none"/>
    <text x="86" y="56" font-family="Inter, Segoe UI, Arial, sans-serif" font-size="22" font-weight="800" fill="#172033" text-anchor="start">HR Docs</text>
    <text x="86" y="78" font-family="Inter, Segoe UI, Arial, sans-serif" font-size="13" font-weight="600" fill="#6A7890" text-anchor="start">Директор</text>
    <rect x="24" y="158" width="212" height="44" rx="6" fill="#FFFFFF" stroke="#FFFFFF"/>
      <circle cx="48" cy="180" r="8" fill="#A7B4C6"/>
      <text x="68" y="186" font-family="Inter, Segoe UI, Arial, sans-serif" font-size="15" font-weight="500" fill="#526174" text-anchor="start">Главная</text>
<rect x="24" y="212" width="212" height="44" rx="6" fill="#EAF1FF" stroke="#BDD0FF"/>
      <circle cx="48" cy="234" r="8" fill="#2563EB"/>
      <text x="68" y="240" font-family="Inter, Segoe UI, Arial, sans-serif" font-size="15" font-weight="700" fill="#1D4ED8" text-anchor="start">Документы</text>
<rect x="24" y="266" width="212" height="44" rx="6" fill="#FFFFFF" stroke="#FFFFFF"/>
      <circle cx="48" cy="288" r="8" fill="#A7B4C6"/>
      <text x="68" y="294" font-family="Inter, Segoe UI, Arial, sans-serif" font-size="15" font-weight="500" fill="#526174" text-anchor="start">Подпись</text>
    <rect x="24" y="850" width="212" height="70" rx="8" fill="#F7F9FC" stroke="#E4EAF2"/>
    <text x="46" y="880" font-family="Inter, Segoe UI, Arial, sans-serif" font-size="15" font-weight="700" fill="#172033" text-anchor="start">director</text>
    <text x="46" y="904" font-family="Inter, Segoe UI, Arial, sans-serif" font-size="13" font-weight="400" fill="#6A7890" text-anchor="start">Подписание документов</text>
  
    
    <text x="304" y="60" font-family="Inter, Segoe UI, Arial, sans-serif" font-size="30" font-weight="800" fill="#172033" text-anchor="start">Кабинет директора</text>
    <text x="304" y="88" font-family="Inter, Segoe UI, Arial, sans-serif" font-size="15" font-weight="400" fill="#66758B" text-anchor="start">Документы, ожидающие электронной подписи</text>
    <rect x="1096" y="34" width="248" height="44" rx="22" fill="#FFFFFF" stroke="#DCE4EF"/>
    <circle cx="1120" cy="56" r="8" fill="#9AA8BA"/>
    <text x="1140" y="62" font-family="Inter, Segoe UI, Arial, sans-serif" font-size="14" font-weight="400" fill="#7B8797" text-anchor="start">Поиск по документам</text>
  
    <rect x="304" y="124" width="640" height="300" rx="8" fill="#FFFFFF" stroke="#DDE4EE"/>
    <text x="334" y="166" font-family="Inter, Segoe UI, Arial, sans-serif" font-size="22" font-weight="800" fill="#172033" text-anchor="start">Ожидают подписи</text>
    <rect x="334" y="194" width="500" height="218" rx="8" fill="#FFFFFF" stroke="#DDE4EE"/>
    <rect x="334" y="194" width="500" height="56" rx="8" fill="#F8FAFD"/>
    <line x1="334" y1="250" x2="834" y2="250" stroke="#E6ECF4"/><text x="352" y="229" font-family="Inter, Segoe UI, Arial, sans-serif" font-size="13" font-weight="700" fill="#5C6A7D" text-anchor="start">Документ</text><text x="562" y="229" font-family="Inter, Segoe UI, Arial, sans-serif" font-size="13" font-weight="700" fill="#5C6A7D" text-anchor="start">Сотрудник</text><text x="732" y="229" font-family="Inter, Segoe UI, Arial, sans-serif" font-size="13" font-weight="700" fill="#5C6A7D" text-anchor="start">Статус</text><line x1="334" y1="304" x2="834" y2="304" stroke="#E6ECF4"/><text x="352" y="284" font-family="Inter, Segoe UI, Arial, sans-serif" font-size="14" font-weight="500" fill="#172033" text-anchor="start">Приказ о приеме</text><text x="562" y="284" font-family="Inter, Segoe UI, Arial, sans-serif" font-size="14" font-weight="500" fill="#526174" text-anchor="start">Иванов И.И.</text><rect x="732" y="264" width="132" height="28" rx="14" fill="#FEF3C7" stroke="none"/><text x="798" y="283" font-family="Inter, Segoe UI, Arial, sans-serif" font-size="13" font-weight="600" fill="#B45309" text-anchor="middle">На подписи</text><line x1="334" y1="358" x2="834" y2="358" stroke="#E6ECF4"/><text x="352" y="338" font-family="Inter, Segoe UI, Arial, sans-serif" font-size="14" font-weight="500" fill="#172033" text-anchor="start">Договор</text><text x="562" y="338" font-family="Inter, Segoe UI, Arial, sans-serif" font-size="14" font-weight="500" fill="#526174" text-anchor="start">Петрова А.А.</text><rect x="732" y="318" width="132" height="28" rx="14" fill="#FEF3C7" stroke="none"/><text x="798" y="337" font-family="Inter, Segoe UI, Arial, sans-serif" font-size="13" font-weight="600" fill="#B45309" text-anchor="middle">На подписи</text><line x1="334" y1="412" x2="834" y2="412" stroke="#E6ECF4"/><text x="352" y="392" font-family="Inter, Segoe UI, Arial, sans-serif" font-size="14" font-weight="500" fill="#172033" text-anchor="start">Перевод</text><text x="562" y="392" font-family="Inter, Segoe UI, Arial, sans-serif" font-size="14" font-weight="500" fill="#526174" text-anchor="start">Орлова М.С.</text><rect x="732" y="372" width="132" height="28" rx="14" fill="#FEF3C7" stroke="none"/><text x="798" y="391" font-family="Inter, Segoe UI, Arial, sans-serif" font-size="13" font-weight="600" fill="#B45309" text-anchor="middle">На подписи</text>
    <rect x="984" y="124" width="360" height="300" rx="8" fill="#FFFFFF" stroke="#DDE4EE"/>
    <text x="1014" y="166" font-family="Inter, Segoe UI, Arial, sans-serif" font-size="22" font-weight="800" fill="#172033" text-anchor="start">Подпись директора</text>
    <rect x="1014" y="196" width="300" height="92" rx="6" fill="#F8FAFD" stroke="#D8E1EC"/>
    <path d="M1040 254 C1072 214 1100 284 1132 246 C1168 204 1190 276 1232 236" stroke="#172033" stroke-width="4" fill="none" stroke-linecap="round"/>
    <text x="1014" y="324" font-family="Inter, Segoe UI, Arial, sans-serif" font-size="14" font-weight="500" fill="#526174" text-anchor="start">Расшифровка: Директор</text>
    <rect x="1014" y="352" width="142" height="42" rx="6" fill="#FFFFFF" stroke="#D6DEE9"/><text x="1085" y="379" font-family="Inter, Segoe UI, Arial, sans-serif" font-size="15" font-weight="700" fill="#2D3B50" text-anchor="middle">Загрузить</text>
    <rect x="1172" y="352" width="142" height="42" rx="6" fill="#FFFFFF" stroke="#D6DEE9"/><text x="1243" y="379" font-family="Inter, Segoe UI, Arial, sans-serif" font-size="15" font-weight="700" fill="#2D3B50" text-anchor="middle">Изменить</text>
    <rect x="304" y="466" width="1040" height="360" rx="8" fill="#FFFFFF" stroke="#DDE4EE"/>
    <text x="334" y="508" font-family="Inter, Segoe UI, Arial, sans-serif" font-size="22" font-weight="800" fill="#172033" text-anchor="start">Просмотр перед подписанием</text>
    <rect x="364" y="546" width="540" height="230" rx="4" fill="#FFFFFF" stroke="#CBD5E1"/>
    <text x="634" y="590" font-family="Inter, Segoe UI, Arial, sans-serif" font-size="18" font-weight="800" fill="#172033" text-anchor="middle">ПРИКАЗ О ПРИЕМЕ</text>
    <line x1="404" y1="632" x2="864" y2="632" stroke="#D7DEE8"/>
    <line x1="404" y1="666" x2="864" y2="666" stroke="#D7DEE8"/>
    <line x1="404" y1="700" x2="864" y2="700" stroke="#D7DEE8"/>
    <text x="404" y="746" font-family="Inter, Segoe UI, Arial, sans-serif" font-size="13" font-weight="700" fill="#172033" text-anchor="start">Подпись директора</text>
    <path d="M548 746 C582 710 616 774 652 738 C684 706 710 758 760 726" stroke="#172033" stroke-width="3" fill="none" stroke-linecap="round"/>
    <rect x="964" y="646" width="250" height="42" rx="6" fill="#2563EB" stroke="#2563EB"/><text x="1089" y="673" font-family="Inter, Segoe UI, Arial, sans-serif" font-size="15" font-weight="700" fill="#FFFFFF" text-anchor="middle">Подписать документ</text>
    <rect x="964" y="718" width="136" height="28" rx="14" fill="#DCFCE7" stroke="none"/><text x="1032" y="737" font-family="Inter, Segoe UI, Arial, sans-serif" font-size="13" font-weight="600" fill="#15803D" text-anchor="middle">После подписи</text>
  
</svg>
